# AST/ASF file generated using VICON BodyLanguage
# -----------------------------------------------
:version 1.10
:name VICON
:units
  mass 1.0
  length 0.45
  angle deg
:documentation
   .ast/.asf automatically generated from VICON data using
   VICON BodyBuilder and BodyLanguage model FoxedUp or BRILLIANT.MOD
:root
   order TX TY TZ RX RY RZ
   axis XYZ
   position 0 0 0  
   orientation 0 0 0 
:bonedata
  begin
     id 1 
     name lhipjoint
     direction 0.822369 -0.411937 0.392449 
     length 3.8167 
     axis 0 0 0  XYZ
  end
  begin
     id 2 
     name lfemur
     direction 0.34202 -0.939693 0  
     length 6.16791  
     axis 0 0 20  XYZ
    dof rx ry rz
    limits (-160.0 20.0)
           (-70.0 70.0)
           (-60.0 70.0)
  end
  begin
     id 3 
     name ltibia
     direction 0.34202 -0.939693 0   
     length 7.07101   
     axis 0 0 20   XYZ
    dof rx
    limits (-10.0 170.0)
  end
  begin
     id 4 
     name lfoot
     direction 0.028254 -0.0776273 0.996582   
     length 1.66799   
     axis -90 7.62852e-016 20   XYZ
    dof rx rz
    limits (-45.0 90.0)
           (-70.0 20.0)
  end
  begin
     id 5 
     name ltoes
     direction 1.53483e-011 -4.21688e-011 1   
     length 0.851674   
     axis -90 7.62852e-016 20   XYZ
    dof rx
    limits (-90.0 20.0)
  end
  begin
     id 6 
     name rhipjoint
     direction -0.822466 -0.411836 0.392353   
     length 3.81764  
     axis 0 0 0  XYZ 
  end
  begin
     id 7 
     name rfemur
     direction -0.34202 -0.939693 0   
     length 6.28636   
     axis 0 0 -20   XYZ
    dof rx ry rz
    limits (-160.0 20.0)
           (-70.0 70.0)
           (-70.0 60.0)
  end
  begin
     id 8 
     name rtibia
     direction -0.34202 -0.939693 0   
     length 6.85621   
     axis 0 0 -20   XYZ
    dof rx
    limits (-10.0 170.0)
 end
 begin
     id 9 
     name rfoot
     direction -0.0553036 -0.151945 0.98684   
     length 1.57293  
     axis -90 -7.62852e-016 -20   XYZ
    dof rx rz
    limits (-45.0 90.0)
           (-20.0 70.0)
  end
  begin
     id 10 
     name rtoes
     direction -1.53592e-011 -4.21964e-011 1   
     length 0.802812   
     axis -90 -7.62852e-016 -20   XYZ
    dof rx
    limits (-90.0 20.0)
  end
  begin
     id 11 
     name lowerback
     direction 0.00654913 0.996475 -0.0836396   
     length 1.97212   
     axis 0 0 0   XYZ
    dof rx ry rz
    limits (-20.0 45.0)
           (-30.0 30.0)
           (-30.0 30.0)
  end
  begin
     id 12 
     name upperback
     direction 0.0111875 0.994527 0.103877   
     length 1.89704   
     axis 0 0 0   XYZ
    dof rx ry rz
    limits (-20.0 45.0)
           (-30.0 30.0)
           (-30.0 30.0)
  end
  begin
     id 13 
     name thorax
     direction 0.00473652 0.989004 0.147814   
     length 1.94516   
     axis 0 0 0   XYZ
    dof rx ry rz
    limits (-20.0 45.0)
           (-30.0 30.0)
           (-30.0 30.0)
  end
  begin
     id 14 
     name lowerneck
     direction -0.00925808 0.999011 0.0434791   
     length 1.81771   
     axis 0 0 0   XYZ
    dof rx ry rz
    limits (-20.0 45.0)
           (-30.0 30.0)
           (-30.0 30.0)
  end
  begin
     id 15 
     name upperneck
     direction 0.00451595 0.964412 -0.264365   
     length 1.80434   
     axis 0 0 0   XYZ
    dof rx ry rz
    limits (-20.0 45.0)
           (-30.0 30.0)
           (-30.0 30.0)
  end
  begin
     id 16
     name head
     direction -0.00110849 0.995756 -0.0920241  
     length 1.84006  
     axis 0 0 0   XYZ
    dof rx ry rz
    limits (-20.0 45.0)
           (-30.0 30.0)
           (-30.0 30.0)
  end
  begin
     id 17 
     name lclavicle
     direction 0.921253 0.385213 0.0538957  
     length 3.67415  
     axis 0 0 0   XYZ
    dof ry rz
    limits (-20.0 10.0)
           (0.0 20.0)
  end
  begin
     id 18 
     name lhumerus
     direction 1 -4.48961e-011 6.73441e-028   
     length 4.32712   
     axis 180 -30 -90   XYZ
    dof rx ry rz
    limits (-60.0 90.0)
           (-90.0 90.0)
           (-90.0 90.0)
  end
  begin
     id 19
     name lradius
     direction 1 -4.48985e-011 -9.53507e-028   
     length 3.28587   
     axis 180 -30 -90   XYZ
    dof rx
    limits (-10.0 170.0)
  end
  begin
     id 20
     name lwrist
     direction 1 -4.48951e-011 -4.67472e-027   
     length 1.64293   
     axis 1.65735e-015 90 90   XYZ
    dof ry
    limits (-180.0 0.0)
 end
  begin
     id 21 
     name lhand
     direction 1 -4.48946e-011 -9.34945e-027   
     length 0.433158   
     axis 5.96574e-015 90 90   XYZ
    dof rx rz
    limits (-90.0 90.0)
           (-45.0 45.0)
  end
  begin
     id 22 
     name lfingers
     direction 1 -4.48882e-011 -1.86989e-026   
     length 0.349224   
     axis 1.19315e-014 90 90   XYZ
    dof rx
    limits (0.0 90.0)
  end
  begin
     id 23
     name lthumb
     direction 0.707107 -6.3493e-011 0.707107   
     length 0.501417   
     axis -90 45 2.85299e-015   XYZ
    dof rx rz
    limits (-45.0 45.0)
           (-45.0 45.0)
  end
  begin
     id 24 
     name rclavicle
     direction -0.884378 0.46502 -0.0403866   
     length 3.50218  
     axis 0 0 0   XYZ 
    dof ry rz
    limits (-10.0 20.0)
           (-20.0 0.0)
  end
  begin
     id 25 
     name rhumerus
     direction -1 -4.48964e-011 1.58188e-027  
     length 4.29104   
     axis 180 30 90   XYZ
    dof rx ry rz
    limits (-90.0 60.0)
           (-90.0 90.0)
           (-90.0 90.0)
  end
  begin
     id 26 
     name rradius
     direction -1 -4.48978e-011 -1.9722e-027   
     length 3.2272   
     axis 180 30 90   XYZ
    dof rx
    limits (-10.0 170.0)
  end
  begin
     id 27 
     name rwrist
     direction -1 -4.48969e-011 -4.67472e-027   
     length 1.6136   
     axis 1.65735e-015 -90 -90   XYZ
    dof ry
    limits (-180.0 0.0)
  end
  begin
     id 28
     name rhand
     direction -1 -4.48846e-011 -9.34945e-027   
     length 0.543623   
     axis 5.96574e-015 -90 -90   XYZ
    dof rx rz
    limits (-90.0 90.0)
           (-45.0 45.0)
  end
  begin
     id 29
     name rfingers
     direction -1 -4.49074e-011 -1.86989e-026   
     length 0.438283   
     axis 1.19315e-014 -90 -90   XYZ
    dof rx
    limits (0.0 90.0)
  end
  begin
     id 30
     name rthumb
     direction -0.707107 -6.34834e-011 0.707107   
     length 0.629289   
     axis -90 -45 -2.85299e-015   XYZ
    dof rx rz
    limits (-45.0 45.0)
           (-45.0 45.0)
  end
:hierarchy
  begin
    root lhipjoint rhipjoint lowerback
    lhipjoint lfemur
    lfemur ltibia
    ltibia lfoot
    lfoot ltoes
    rhipjoint rfemur
    rfemur rtibia
    rtibia rfoot
    rfoot rtoes
    lowerback upperback
    upperback thorax
    thorax lowerneck lclavicle rclavicle
    lowerneck upperneck
    upperneck head
    lclavicle lhumerus
    lhumerus lradius
    lradius lwrist
    lwrist lhand lthumb
    lhand lfingers
    rclavicle rhumerus
    rhumerus rradius
    rradius rwrist
    rwrist rhand rthumb
    rhand rfingers
  end

#!OML:ASF H:\GeneralSubjects\Female5\Project 1\Capture day 1\Session 1\Female5.ASF
:FULLY-SPECIFIED
:DEGREES
1
root -35.3735 15.7127 1.06393 -173.482 71.096 177.468
lowerback 5.81167 1.30329 -4.62715
upperback -10.1997 1.64316 0.408958
thorax -14.6723 1.48597 2.69699
lowerneck -22.079 0.966741 -3.47858
upperneck 45.3859 6.51012 0.700724
head 23.0463 2.80631 3.14824
rclavicle 3.76014e-014 1.62631e-014
rhumerus -47.4128 22.1085 -87.2184
rradius 36.4512
rwrist -12.3015
rhand -14.7046 -28.3229
rfingers 7.12502
rthumb 11.4497 -57.9902
lclavicle 3.76014e-014 1.62631e-014
lhumerus -50.1888 17.0921 65.4939
lradius 33.35
lwrist -7.57517
lhand -18.4504 34.0458
lfingers 7.12502
lthumb 7.8356 63.8806
rfemur -9.44139 18.2283 11.3758
rtibia 12.112
rfoot -34.1719 -27.8134
rtoes -7.32368
lfemur 4.92865 -36.9207 -38.9427
ltibia -6.77403
lfoot -34.2138 35.4438
ltoes -60.8402
2
root -35.3667 15.7127 1.05982 -173.448 71.2184 177.543
lowerback 5.89905 1.32157 -4.57863
upperback -10.2308 1.66818 0.388777
thorax -14.7655 1.49347 2.63994
lowerneck -22.1203 0.908977 -3.4734
upperneck 45.421 6.38141 0.760865
head 23.096 2.76509 3.15335
rclavicle -4.17005e-014 -1.24489e-014
rhumerus -47.4368 22.0324 -87.131
rradius 36.3864
rwrist -12.2134
rhand -14.9846 -28.3572
rfingers 7.12502
rthumb 11.1796 -58.0393
lclavicle -4.17005e-014 -1.24489e-014
lhumerus -50.2186 16.9785 65.5597
lradius 33.2431
lwrist -7.62282
lhand -18.2836 33.8865
lfingers 7.12502
lthumb 7.99666 63.7152
rfemur -9.4452 18.2797 11.4059
rtibia 12.1496
rfoot -32.8044 -28.4698
rtoes -10.5857
lfemur 4.67524 -36.7906 -38.7499
ltibia -6.48242
lfoot -33.6489 36.1474
ltoes -61.415
3
root -35.3617 15.7126 1.05062 -173.942 71.3409 177.059
lowerback 5.93396 1.34119 -4.61947
upperback -10.2199 1.67481 0.296593
thorax -14.7735 1.49311 2.55821
lowerneck -22.1168 0.849628 -3.62835
upperneck 45.3953 6.21663 0.994928
head 23.0493 2.70664 3.26522
rclavicle -3.21519e-014 -1.12531e-014
rhumerus -47.1699 21.5615 -86.6798
rradius 36.2352
rwrist -11.2756
rhand -16.6436 -27.8334
rfingers 7.12502
rthumb 9.57919 -57.5957
lclavicle -3.21519e-014 -1.12531e-014
lhumerus -50.1733 17.0161 65.4956
lradius 33.1164
lwrist -7.96818
lhand -17.9237 33.8839
lfingers 7.12502
lthumb 8.34398 63.6991
rfemur -9.4953 18.0835 11.1771
rtibia 12.261
rfoot -33.7773 -27.7838
rtoes -7.24281
lfemur 4.28076 -36.6812 -38.7052
ltibia -6.00454
lfoot -32.8089 37.0496
ltoes -62.4618
4
root -35.3565 15.7121 1.04 -174.198 71.4605 176.854
lowerback 6.04448 1.34961 -4.52388
upperback -10.2045 1.6805 0.221375
thorax -14.8182 1.47813 2.41781
lowerneck -22.1414 0.771849 -3.92301
upperneck 45.4232 6.02052 1.39801
head 23.045 2.63232 3.49525
rclavicle 2.85815e-014 6.70898e-016
rhumerus -46.933 21.275 -86.4489
rradius 36.0461
rwrist -11.1347
rhand -17.3271 -28.865
rfingers 7.12502
rthumb 8.91974 -58.6565
lclavicle 2.85815e-014 6.70898e-016
lhumerus -50.1323 16.9274 65.5842
lradius 33.1002
lwrist -7.91663
lhand -18.0758 34.1434
lfingers 7.12502
lthumb 8.19722 63.9644
rfemur -9.57453 17.6625 11.0548
rtibia 12.4714
rfoot -33.9169 -27.3815
rtoes -6.09563
lfemur 3.8196 -36.5555 -38.5171
ltibia -5.42266
lfoot -32.7858 37.0847
ltoes -63.2562
5
root -35.3487 15.7096 1.03211 -174.23 71.5922 176.935
lowerback 6.21116 1.35127 -4.38786
upperback -10.204 1.68413 0.180798
thorax -14.9166 1.46149 2.29212
lowerneck -22.1881 0.711289 -4.10939
upperneck 45.5293 5.88179 1.70003
head 23.1354 2.58416 3.67576
rclavicle -9.25902e-015 3.57812e-015
rhumerus -47.0069 21.4262 -86.6916
rradius 35.9443
rwrist -12.2475
rhand -18.0824 -28.9698
rfingers 7.12502
rthumb 8.19076 -58.7911
lclavicle -9.25902e-015 3.57812e-015
lhumerus -50.157 16.8552 65.6527
lradius 33.111
lwrist -7.61145
lhand -18.5785 34.4586
lfingers 7.12502
lthumb 7.71201 64.2979
rfemur -9.67339 17.3517 11.089
rtibia 12.8529
rfoot -34.0014 -27.1415
rtoes -5.86126
lfemur 3.30278 -33.9935 -38.0648
ltibia -5.24296
lfoot -30.1587 35.8473
ltoes -63.7725
6
root -35.3395 15.7045 1.02487 -174.385 71.7521 176.901
lowerback 6.31838 1.37079 -4.29525
upperback -10.1589 1.70473 0.120125
thorax -14.9252 1.4526 2.16761
lowerneck -22.2931 0.66215 -4.23341
upperneck 45.5821 5.75585 1.92184
head 23.211 2.53782 3.80105
rclavicle 4.15149e-014 8.39865e-015
rhumerus -46.685 21.0161 -86.2949
rradius 35.695
rwrist -10.9435
rhand -17.4694 -28.169
rfingers 7.12502
rthumb 8.78235 -57.9663
lclavicle 4.15149e-014 8.39865e-015
lhumerus -50.0659 16.9429 65.53
lradius 33.0172
lwrist -7.69085
lhand -18.2538 33.9902
lfingers 7.12502
lthumb 8.02535 63.8178
rfemur -9.81465 17.095 11.0983
rtibia 13.3515
rfoot -31.846 -27.8547
rtoes -11.1154
lfemur 2.95245 -31.8967 -37.7899
ltibia -5.03681
lfoot -28.0902 34.7053
ltoes -64.4234
